# xmcd CD database file
#
# Track frame offsets:
#	150
#	17602
#	30681
#	46943
#	63987
#	81026
#	96204
#	114367
#	129922
#	147075
#	162561
#	178141
#	196016
#	210733
#
# Disc length: 3065 seconds
#
# Revision: 2
# Processed by: cddbd v1.5.2PL0 Copyright (c) Steve Scherf et al.
# Submitted via: CDex 1.70beta2
#
DISCID=b50bf70e
DTITLE=Colbie Caillat - All of You - UICU-1207
DYEAR=2011
DGENRE=Classical
TTITLE0=Brighter Than the Sun
TTITLE1=I Do
TTITLE2=Before I Let You GO
TTITLE3=Favorite Song (feat. Common)
TTITLE4=What If
TTITLE5=Shadow
TTITLE6=Think Good Thoughts
TTITLE7=Like Yesterday
TTITLE8=All of You
TTITLE9=Dream Life, Life
TTITLE10=What Means the Most
TTITLE11=Make it Rain
TTITLE12=Stereo
TTITLE13=Maria
EXTD=YEAR: 2011
EXTT0=
EXTT1=
EXTT2=
EXTT3=
EXTT4=
EXTT5=
EXTT6=
EXTT7=
EXTT8=
EXTT9=
EXTT10=
EXTT11=
EXTT12=
EXTT13=
PLAYORDER=
